<svg width="38" height="38" viewBox="0 0 38 38" fill="none" xmlns="http://www.w3.org/2000/svg">
<mask id="mask0" mask-type="alpha" maskUnits="userSpaceOnUse" x="0" y="0" width="38" height="38">
<rect width="38" height="38" fill="#C4C4C4"/>
</mask>
<g mask="url(#mask0)">
<path d="M24.24 24.7507C27.85 18.2147 29.6993 13.5913 29.6993 11.0327C29.6993 8.10662 28.537 5.30042 26.4679 3.23139C24.3989 1.16237 21.5927 0 18.6667 0C15.7406 0 12.9344 1.16237 10.8654 3.23139C8.79637 5.30042 7.634 8.10662 7.634 11.0327C7.634 13.566 9.48333 18.2147 13.0933 24.7507C8.736 25.878 6 28.2467 6 31.084C6 35.0107 11.4467 38 18.6667 38C25.8867 38 31.3333 35.0107 31.3333 31.0333C31.3333 28.2467 28.5973 25.878 24.24 24.7507ZM18.6667 2.53333C20.9198 2.53668 23.0797 3.43322 24.6729 5.02643C26.2661 6.61964 27.1626 8.77953 27.166 11.0327C27.166 12.2993 26.3933 15.8713 21.2 24.966C20.2373 26.6633 19.3253 28.1707 18.6667 29.2473C18.2233 28.5253 17.6533 27.588 17.0453 26.5493L16.7033 25.9667L16.1333 24.9913C10.94 15.8713 10.1673 12.3247 10.1673 11.058C10.1657 9.94019 10.3842 8.83299 10.8104 7.79963C11.2367 6.76627 11.8622 5.82698 12.6515 5.03539C13.4407 4.24381 14.3781 3.61542 15.4102 3.18612C16.4423 2.75681 17.5489 2.535 18.6667 2.53333V2.53333ZM18.6667 35.4667C12.7007 35.4667 8.53333 33.136 8.53333 31.0333C8.53333 29.412 10.9527 27.7907 14.3853 27.0433L14.5373 27.2967L14.8667 27.8667L15.234 28.4873L15.5127 28.956L15.8547 29.5133L16.0953 29.9187L16.412 30.438L16.602 30.7547C16.7033 30.932 16.8047 31.084 16.906 31.236L17.02 31.426L17.2987 31.882V31.9453L17.6027 32.414C17.7175 32.5918 17.875 32.7379 18.0609 32.8392C18.2468 32.9404 18.455 32.9934 18.6667 32.9934C18.8783 32.9934 19.0866 32.9404 19.2724 32.8392C19.4583 32.7379 19.6158 32.5918 19.7307 32.414L20.0347 31.9327C20.1233 31.806 20.2247 31.6413 20.3387 31.4513L20.4653 31.2487L20.7567 30.7673L20.9467 30.476C21.048 30.2987 21.1493 30.1213 21.276 29.9313L21.4913 29.564L21.8587 28.956L22.112 28.538C22.2387 28.31 22.378 28.082 22.5173 27.854C22.6567 27.626 22.682 27.5627 22.7707 27.4107L22.9353 27.132C26.368 27.8793 28.7873 29.5007 28.7873 31.122C28.8 33.136 24.6327 35.4667 18.6667 35.4667Z" fill="white"/>
<path d="M18.6672 15.8334C19.4188 15.8334 20.1534 15.6105 20.7784 15.193C21.4033 14.7754 21.8903 14.182 22.1779 13.4876C22.4655 12.7932 22.5408 12.0292 22.3942 11.2921C22.2475 10.5549 21.8856 9.87783 21.3542 9.34639C20.8228 8.81495 20.1457 8.45304 19.4085 8.30642C18.6714 8.15979 17.9073 8.23504 17.213 8.52266C16.5186 8.81027 15.9252 9.29733 15.5076 9.92223C15.0901 10.5471 14.8672 11.2818 14.8672 12.0334C14.8672 13.0412 15.2675 14.0078 15.9802 14.7204C16.6928 15.433 17.6594 15.8334 18.6672 15.8334ZM18.6672 10.7667C18.9177 10.7667 19.1626 10.841 19.3709 10.9802C19.5792 11.1194 19.7416 11.3172 19.8374 11.5487C19.9333 11.7801 19.9584 12.0348 19.9095 12.2805C19.8606 12.5262 19.74 12.7519 19.5629 12.9291C19.3857 13.1062 19.16 13.2269 18.9143 13.2757C18.6686 13.3246 18.4139 13.2995 18.1825 13.2036C17.951 13.1078 17.7532 12.9454 17.614 12.7371C17.4748 12.5288 17.4005 12.2839 17.4005 12.0334C17.4005 11.6975 17.534 11.3753 17.7715 11.1377C18.0091 10.9002 18.3312 10.7667 18.6672 10.7667V10.7667Z" fill="white"/>
</g>
</svg>
