<svg width="38" height="38" viewBox="0 0 38 38" fill="none" xmlns="http://www.w3.org/2000/svg">
<mask id="mask0" mask-type="alpha" maskUnits="userSpaceOnUse" x="0" y="0" width="38" height="38">
<rect width="38" height="38" fill="#C4C4C4"/>
</mask>
<g mask="url(#mask0)">
<path d="M4.07143 6C1.83934 6 0 7.83938 0 10.0714V28.1667C0 30.3987 1.83934 32.2381 4.07143 32.2381H33.9286C36.1607 32.2381 38 30.3987 38 28.1667V10.0714C38 7.83938 36.1607 6 33.9286 6H4.07143ZM4.36828 8.71429H33.6458L19.8341 21.0417C19.3076 21.5118 18.722 21.5123 18.1942 21.0417L4.36828 8.71429ZM2.71429 10.8772L12.0164 19.1756L2.71429 28.1101V10.8772ZM35.2857 10.8772V28.096L26.0119 19.1615L35.2857 10.8772ZM23.9762 20.9851L32.8401 29.5238H5.15995L14.0521 20.9992L16.3847 23.0774C17.8674 24.3994 20.1607 24.4015 21.6436 23.0774L23.9762 20.9851Z" fill="white"/>
</g>
</svg>
