<svg width="77" height="72" viewBox="0 0 77 72" fill="none" xmlns="http://www.w3.org/2000/svg">
<path d="M41.5897 1.0069L41.5896 1.0069L5.12235 7.30397C2.70539 7.72139 0.95 9.76756 0.95 12.1716V59.8296C0.95 62.2336 2.70537 64.2811 5.12237 64.6973L41.5896 70.9943C41.8114 71.0328 42.0336 71.05 42.2524 71.05C43.1376 71.05 44.0023 70.7463 44.6938 70.1787C45.5553 69.4721 46.05 68.4332 46.05 67.3307V57.422C47.164 57.8329 48.3915 58.0665 49.75 58.0665C55.4932 58.0665 57.9935 54.2395 58.5118 52.2095C58.5379 52.1074 58.55 52.0052 58.55 51.901V32.3313C58.55 30.9536 57.4053 29.8351 56 29.8351H46.05V24.7764C47.2352 25.7071 48.7396 26.2658 50.375 26.2658C54.1928 26.2658 57.3 23.227 57.3 19.4887C57.3 15.7504 54.1928 12.7117 50.375 12.7117C48.7396 12.7117 47.2352 13.2704 46.05 14.201V4.67053C46.05 3.56805 45.5553 2.52797 44.6939 1.8202L44.6938 1.82018C44.046 1.28851 43.2499 0.989497 42.4231 0.95366C42.1475 0.941716 41.8682 0.958888 41.5897 1.0069ZM42.0414 68.4878L42.0412 68.4878L5.57394 62.1907C4.40091 61.988 3.55 60.9946 3.55 59.8296V12.1716C3.55 11.0066 4.40091 10.0132 5.57394 9.81049L42.0412 3.51344C42.1594 3.49317 42.2703 3.492 42.3721 3.50197C42.6767 3.53181 42.902 3.67098 43.0213 3.77016C43.1817 3.90355 43.45 4.19485 43.45 4.67053V67.3307C43.45 67.8064 43.1816 68.0989 43.0214 68.2309C42.8615 68.3627 42.5142 68.5712 42.0414 68.4878ZM50.375 15.2579C52.7609 15.2579 54.7 17.1568 54.7 19.4887C54.7 21.8207 52.7609 23.7196 50.375 23.7196C47.9891 23.7196 46.05 21.8207 46.05 19.4887C46.05 17.1568 47.9891 15.2579 50.375 15.2579ZM67.875 16.381C64.0572 16.381 60.95 19.4197 60.95 23.158C60.95 26.8963 64.0572 29.9351 67.875 29.9351C71.6928 29.9351 74.8 26.8963 74.8 23.158C74.8 19.4197 71.6928 16.381 67.875 16.381ZM67.875 18.9272C70.2609 18.9272 72.2 20.8261 72.2 23.158C72.2 25.49 70.2609 27.3889 67.875 27.3889C65.4891 27.3889 63.55 25.49 63.55 23.158C63.55 20.8261 65.4891 18.9272 67.875 18.9272ZM13.5 22.4965C12.7834 22.4965 12.2 23.0658 12.2 23.7696C12.2 24.4734 12.7834 25.0427 13.5 25.0427H20.95V48.2316C20.95 48.9354 21.5321 49.5047 22.25 49.5047C22.9679 49.5047 23.55 48.9354 23.55 48.2316V25.0427H31C31.7166 25.0427 32.3 24.4734 32.3 23.7696C32.3 23.0658 31.7166 22.4965 31 22.4965H13.5ZM46.05 32.3813H55.95V51.7159C55.8357 52.0492 55.4492 52.9943 54.5173 53.8587C53.579 54.7289 52.0849 55.5203 49.75 55.5203C48.3099 55.5203 47.0687 55.2263 46.05 54.6478V32.3813ZM63.5 32.2813C62.0947 32.2813 60.95 33.3998 60.95 34.7775V51.901C60.95 52.3981 61.2445 52.8477 61.7046 53.055C62.2208 53.2894 63.149 53.6246 64.1759 53.9013C65.2026 54.1779 66.3322 54.3972 67.25 54.3972C72.9932 54.3972 75.4935 50.5702 76.0118 48.5402C76.0379 48.4381 76.05 48.3359 76.05 48.2316V34.7775C76.05 33.3998 74.9053 32.2813 73.5 32.2813H63.5ZM63.55 34.8275H73.45V48.0466C73.3357 48.3799 72.9492 49.325 72.0173 50.1894C71.079 51.0596 69.5849 51.851 67.25 51.851C66.2236 51.851 64.617 51.4177 63.55 51.0415V34.8275Z" fill="white" stroke="white" stroke-width="0.1"/>
</svg>
