<svg width="38" height="38" viewBox="0 0 38 38" fill="none" xmlns="http://www.w3.org/2000/svg">
<mask id="mask0" mask-type="alpha" maskUnits="userSpaceOnUse" x="0" y="0" width="38" height="38">
<rect width="38" height="38" fill="#C4C4C4"/>
</mask>
<g mask="url(#mask0)">
<path fill-rule="evenodd" clip-rule="evenodd" d="M32.3182 5.52228C28.7621 1.96311 24.0326 0.00200503 18.9939 0C8.61179 0 0.162101 8.44654 0.157931 18.8287C0.156569 22.1474 1.0239 25.3869 2.67223 28.2423L0 38L9.98516 35.3816C12.7364 36.8815 15.8338 37.6722 18.9864 37.6734H18.9941C29.3752 37.6734 37.8258 29.2259 37.8299 18.8436C37.8318 13.8123 35.8744 9.08136 32.3182 5.52218V5.52223V5.52228ZM18.9941 34.4934H18.9877C16.1785 34.4922 13.4232 33.7377 11.0194 32.3118L10.4477 31.9726L4.52235 33.5266L6.10393 27.7512L5.7316 27.1591C4.16446 24.6673 3.33674 21.787 3.338 18.8299C3.34141 10.2007 10.3646 3.18023 19.0001 3.18023C23.1816 3.18183 27.1124 4.81197 30.0682 7.77019C33.0241 10.7284 34.6511 14.6606 34.6496 18.8425C34.6462 27.4724 27.6231 34.4934 18.9941 34.4934Z" fill="white"/>
<path fill-rule="evenodd" clip-rule="evenodd" d="M12.6792 27.9495C12.8118 28.0295 13.0841 28.0295 13.7087 28.0287C16.3592 28.0266 18.6487 28.0184 20.2771 28.0184C27.877 28.0184 27.6773 20.0177 24.1238 19.0195C24.6444 18.0974 27.0156 16.3653 25.549 12.7851C24.0986 9.24493 17.8622 10.0483 13.5967 10.0504C12.0185 10.0506 12.2545 11.2168 12.2626 13.03C12.2755 15.9019 12.2649 23.6757 12.263 27.0361C12.2626 27.7174 12.4682 27.8222 12.6792 27.9495ZM15.9676 25.0176C16.6852 25.0176 18.3779 25.0176 19.8288 25.0152C21.4718 25.0125 22.935 24.2441 22.8983 22.6084C22.8715 21.0675 21.8464 20.5619 20.4237 20.4207C19.0685 20.4337 17.5184 20.4337 15.9676 20.4337V25.0176H15.9676ZM15.9676 17.3391C18.8263 17.3 19.9291 17.4544 21.4898 17.0635C22.5623 16.4548 23.0307 14.1971 21.4958 13.4303C20.4296 12.8975 17.2786 13.0798 15.9676 13.1344V17.3392V17.3391Z" fill="white"/>
</g>
</svg>
