<svg width="270" height="72" viewBox="0 0 270 72" fill="none" xmlns="http://www.w3.org/2000/svg">
<path fill-rule="evenodd" clip-rule="evenodd" d="M0.0012207 0.228149H57.4187V58.8475L28.71 72L0.0012207 58.8475V0.228149ZM14.7436 45.2177V7.73725H26.1836L29.0436 10.2962V24.0961L27.0007 26.2034L29.0436 28.3108V41.6051L25.9793 45.2177H14.7436ZM24.9721 10.4467H18.625V24.7203H24.9721V10.4467ZM18.625 27.5802H24.9721V41.6051H18.625V27.5802ZM36.1936 7.73725H41.3007L42.7307 9.09197V12.6499H40.075V9.49936H37.405V22.0812H40.075V18.6918H42.7307V22.4886L41.3007 23.9938H36.1936L34.5593 22.4886V9.24249L36.1936 7.73725ZM34.355 26.8848V25.6627H42.935V26.8848H34.355ZM34.355 45.2177V28.9218H36.6739L38.761 37.0074L40.848 28.9218H42.935V45.2177H40.3842V39.1822L38.761 41.8358L37.1377 39.1822V45.2177H34.355ZM42.935 49.0949H15.0676V52.6491H42.935V49.0949Z" fill="white"/>
<path d="M69.7988 27.591V26.5882C70.1343 26.3947 70.4874 26.2276 70.8581 26.0869C71.2465 25.9461 71.6173 25.8582 71.9704 25.823V10.8873C71.6173 10.8169 71.2465 10.7202 70.8581 10.597C70.4697 10.4563 70.1166 10.298 69.7988 10.122V9.11928H74.0625C74.7334 9.11928 75.3689 9.0929 75.9692 9.04012C76.5695 8.98734 77.258 8.96096 78.0348 8.96096C78.8823 8.96096 79.7032 9.02253 80.4977 9.14567C81.2922 9.26882 81.9984 9.48872 82.6163 9.80538C83.2342 10.122 83.7285 10.5706 84.0993 11.1512C84.47 11.7141 84.6554 12.4442 84.6554 13.3414C84.6554 13.9043 84.5495 14.4321 84.3376 14.9247C84.1434 15.3997 83.861 15.8219 83.4902 16.1913C83.1371 16.5607 82.7134 16.8686 82.219 17.1149C81.7424 17.3612 81.2215 17.5371 80.6566 17.6427V17.7482C81.2215 17.8186 81.7865 17.9505 82.3515 18.144C82.9341 18.3375 83.4549 18.619 83.9139 18.9885C84.3729 19.3579 84.7437 19.8241 85.0262 20.387C85.3263 20.9324 85.4764 21.5833 85.4764 22.3397C85.4764 23.2897 85.2645 24.1078 84.8408 24.7938C84.4171 25.4799 83.8433 26.0429 83.1194 26.4827C82.4132 26.9225 81.6011 27.2479 80.6831 27.4591C79.765 27.6526 78.8117 27.7493 77.823 27.7493C77.4522 27.7493 77.0462 27.7405 76.6048 27.7229C76.1634 27.7053 75.722 27.6877 75.2807 27.6702C74.8393 27.6526 74.4068 27.635 73.983 27.6174C73.577 27.5998 73.2327 27.591 72.9502 27.591H69.7988ZM77.7965 26.0341C78.9088 26.0341 79.7827 25.7086 80.4182 25.0577C81.0538 24.3892 81.3716 23.5096 81.3716 22.4189C81.3716 21.7504 81.2657 21.2051 81.0538 20.7828C80.842 20.343 80.5507 20 80.1799 19.7537C79.8092 19.4898 79.3678 19.3139 78.8558 19.2259C78.3438 19.1204 77.7877 19.0676 77.1874 19.0676H75.7838V25.8494C76.031 25.9022 76.287 25.9461 76.5518 25.9813C76.8343 26.0165 77.2492 26.0341 77.7965 26.0341ZM76.6313 17.3524C76.9314 17.3524 77.2315 17.3436 77.5317 17.326C77.8318 17.2908 78.1143 17.2556 78.3791 17.2204C79.0676 16.939 79.6238 16.508 80.0475 15.9274C80.4712 15.3293 80.6831 14.652 80.6831 13.8955C80.6831 12.7872 80.3918 11.978 79.8092 11.4678C79.2265 10.9401 78.4762 10.6762 77.5582 10.6762C77.1697 10.6762 76.8343 10.685 76.5518 10.7026C76.2693 10.7202 76.0134 10.7466 75.7838 10.7817V17.3524H76.6313Z" fill="white"/>
<path d="M87.6854 20.994C87.6854 19.9208 87.8443 18.9621 88.1621 18.1176C88.4975 17.2556 88.9654 16.5256 89.5656 15.9274C90.1835 15.3293 90.925 14.8719 91.7901 14.5552C92.6552 14.2386 93.6351 14.0803 94.7297 14.0803C95.9655 14.0803 97.0248 14.2562 97.9076 14.608C98.808 14.9423 99.5406 15.4173 100.106 16.033C100.688 16.6311 101.112 17.3612 101.377 18.2232C101.642 19.0676 101.774 19.9912 101.774 20.994C101.774 22.0671 101.615 23.0346 101.297 23.8967C100.98 24.7411 100.512 25.4623 99.8937 26.0605C99.2935 26.6586 98.552 27.116 97.6692 27.4327C96.8041 27.7493 95.8243 27.9077 94.7297 27.9077C93.5291 27.9077 92.4875 27.7405 91.6048 27.4063C90.722 27.0544 89.9893 26.5794 89.4067 25.9813C88.8241 25.3656 88.3916 24.6355 88.1091 23.7911C87.8266 22.9291 87.6854 21.9967 87.6854 20.994ZM91.7901 20.994C91.7901 21.7856 91.8343 22.5157 91.9225 23.1842C92.0285 23.8351 92.205 24.3892 92.4522 24.8466C92.6994 25.304 93.0348 25.6647 93.4585 25.9285C93.8822 26.1748 94.4295 26.298 95.1004 26.298C95.4888 26.298 95.8419 26.21 96.1597 26.0341C96.4775 25.8406 96.7512 25.5415 96.9807 25.1369C97.2102 24.7147 97.3779 24.1693 97.4838 23.5008C97.6074 22.8147 97.6692 21.9791 97.6692 20.994C97.6692 20.1847 97.6163 19.4546 97.5103 18.8037C97.422 18.1528 97.2543 17.5987 97.0072 17.1413C96.7776 16.6839 96.4599 16.332 96.0538 16.0858C95.6477 15.8219 95.1357 15.6899 94.5178 15.6899C94.0588 15.6899 93.6616 15.7867 93.3261 15.9802C92.9907 16.1561 92.7082 16.4552 92.4787 16.8774C92.2492 17.282 92.0726 17.8274 91.949 18.5135C91.8431 19.182 91.7901 20.0088 91.7901 20.994Z" fill="white"/>
<path d="M110.665 17.4316C110.454 17.5371 110.206 17.713 109.924 17.9593C109.641 18.2056 109.385 18.6102 109.156 19.1732V25.9285C109.509 25.9637 109.862 26.0341 110.215 26.1396C110.568 26.2276 110.921 26.3683 111.275 26.5619V27.591H103.595V26.5619C103.912 26.3859 104.213 26.254 104.495 26.166C104.778 26.0781 105.06 25.9989 105.342 25.9285V16.2705L103.595 16.0594V15.0302C103.877 14.9071 104.221 14.7927 104.627 14.6872C105.051 14.5816 105.484 14.4937 105.925 14.4233C106.366 14.3353 106.79 14.265 107.196 14.2122C107.62 14.1594 107.973 14.1154 108.256 14.0803H109.156V17.5899H109.262C109.403 17.2029 109.606 16.7982 109.871 16.376C110.153 15.9538 110.48 15.5668 110.851 15.2149C111.222 14.8631 111.628 14.5816 112.069 14.3705C112.51 14.1594 112.969 14.0627 113.446 14.0803C113.64 14.3265 113.808 14.6784 113.949 15.1358C114.09 15.5756 114.205 15.9978 114.294 16.4024V17.4316H110.665Z" fill="white"/>
<path d="M122.468 17.4316C122.256 17.5371 122.009 17.713 121.726 17.9593C121.444 18.2056 121.188 18.6102 120.958 19.1732V25.9285C121.311 25.9637 121.664 26.0341 122.017 26.1396C122.371 26.2276 122.724 26.3683 123.077 26.5619V27.591H115.397V26.5619C115.715 26.3859 116.015 26.254 116.297 26.166C116.58 26.0781 116.862 25.9989 117.145 25.9285V16.2705L115.397 16.0594V15.0302C115.679 14.9071 116.024 14.7927 116.43 14.6872C116.853 14.5816 117.286 14.4937 117.727 14.4233C118.169 14.3353 118.592 14.265 118.998 14.2122C119.422 14.1594 119.775 14.1154 120.058 14.0803H120.958V17.5899H121.064C121.205 17.2029 121.408 16.7982 121.673 16.376C121.956 15.9538 122.282 15.5668 122.653 15.2149C123.024 14.8631 123.43 14.5816 123.871 14.3705C124.313 14.1594 124.772 14.0627 125.248 14.0803C125.443 14.3265 125.61 14.6784 125.751 15.1358C125.893 15.5756 126.007 15.9978 126.096 16.4024V17.4316H122.468Z" fill="white"/>
<path d="M139.46 25.3744C139.319 25.6735 139.09 25.9813 138.772 26.298C138.472 26.597 138.092 26.8697 137.633 27.116C137.192 27.3447 136.671 27.5294 136.071 27.6702C135.488 27.8285 134.852 27.9077 134.164 27.9077C133.069 27.9077 132.098 27.7493 131.251 27.4327C130.403 27.0984 129.697 26.6322 129.132 26.0341C128.567 25.4184 128.135 24.6883 127.835 23.8439C127.552 22.9995 127.411 22.0495 127.411 20.994C127.411 18.7422 128.002 17.0269 129.185 15.8483C130.368 14.6696 132.01 14.0803 134.111 14.0803C135.011 14.0803 135.85 14.2034 136.627 14.4497C137.421 14.696 138.075 15.1006 138.587 15.6635C139.116 16.2265 139.478 16.9654 139.672 17.8802C139.884 18.7949 139.875 19.912 139.646 21.2314H131.516C131.533 22.6212 131.886 23.7295 132.575 24.5564C133.281 25.3832 134.314 25.7966 135.673 25.7966C136.256 25.7966 136.856 25.7086 137.474 25.5327C138.11 25.3568 138.604 25.1281 138.957 24.8466L139.46 25.3744ZM134.005 15.5844C133.652 15.5844 133.334 15.646 133.052 15.7691C132.787 15.8922 132.549 16.1209 132.337 16.4552C132.142 16.7718 131.984 17.2117 131.86 17.7746C131.736 18.32 131.648 19.0148 131.595 19.8593H135.859C135.982 18.4871 135.903 17.4316 135.62 16.6927C135.338 15.9538 134.8 15.5844 134.005 15.5844Z" fill="white"/>
<path d="M149.341 27.591H142.032V26.5619C142.615 26.2804 143.197 26.0693 143.78 25.9285V9.93732L141.767 9.72621V8.69707C141.997 8.59152 142.315 8.48597 142.721 8.38042C143.127 8.27486 143.559 8.1869 144.018 8.11654C144.495 8.02857 144.963 7.95821 145.422 7.90543C145.899 7.83506 146.322 7.78228 146.693 7.7471H147.593V25.9285C148.176 26.0693 148.759 26.2804 149.341 26.5619V27.591Z" fill="white"/>
<path d="M158.531 27.591H151.222V26.5619C151.805 26.2804 152.388 26.0693 152.97 25.9285V9.93732L150.957 9.72621V8.69707C151.187 8.59152 151.505 8.48597 151.911 8.38042C152.317 8.27486 152.749 8.1869 153.208 8.11654C153.685 8.02857 154.153 7.95821 154.612 7.90543C155.089 7.83506 155.512 7.78228 155.883 7.7471H156.784V25.9285C157.366 26.0693 157.949 26.2804 158.531 26.5619V27.591Z" fill="white"/>
<path d="M167.722 27.591H160.413V26.5619C160.677 26.4211 160.951 26.3068 161.233 26.2188C161.516 26.1133 161.825 26.0165 162.16 25.9285V16.2705L160.413 16.0594V15.0302C160.677 14.9247 161.004 14.8191 161.392 14.7136C161.798 14.608 162.222 14.5201 162.664 14.4497C163.105 14.3617 163.537 14.2914 163.961 14.2386C164.385 14.1682 164.756 14.1154 165.073 14.0803H165.974V25.9285C166.327 26.0165 166.645 26.1133 166.927 26.2188C167.21 26.3068 167.474 26.4211 167.722 26.5619V27.591ZM161.71 10.0693C161.71 9.45353 161.922 8.96975 162.346 8.61791C162.769 8.26607 163.317 8.09015 163.988 8.09015C164.659 8.09015 165.206 8.26607 165.63 8.61791C166.053 8.96975 166.265 9.45353 166.265 10.0693C166.265 10.6674 166.053 11.1424 165.63 11.4942C165.206 11.8461 164.659 12.022 163.988 12.022C163.317 12.022 162.769 11.8461 162.346 11.4942C161.922 11.1424 161.71 10.6674 161.71 10.0693Z" fill="white"/>
<path d="M190.617 22.0495H191.703C191.774 22.331 191.835 22.674 191.888 23.0786C191.959 23.4656 192.012 23.8879 192.047 24.3453C192.1 24.7851 192.136 25.2249 192.153 25.6647C192.171 26.1045 192.18 26.5003 192.18 26.8521C191.562 27.2392 190.785 27.5118 189.849 27.6702C188.931 27.8285 187.987 27.9077 187.016 27.9077C185.55 27.9077 184.217 27.7317 183.017 27.3799C181.834 27.0105 180.819 26.4387 179.971 25.6647C179.142 24.873 178.497 23.8791 178.038 22.6828C177.579 21.4689 177.35 20.0176 177.35 18.3288C177.35 16.6575 177.597 15.2237 178.091 14.0275C178.603 12.8136 179.283 11.8197 180.13 11.0456C180.978 10.2716 181.958 9.70862 183.07 9.35678C184.2 8.98734 185.383 8.80263 186.618 8.80263C187.784 8.80263 188.834 8.89059 189.77 9.06651C190.723 9.22484 191.5 9.44474 192.1 9.72621C192.1 10.0077 192.083 10.3683 192.047 10.8081C192.03 11.2479 191.986 11.7141 191.915 12.2067C191.862 12.6817 191.791 13.1567 191.703 13.6317C191.632 14.0891 191.562 14.4761 191.491 14.7927H190.379L188.922 10.8081C188.764 10.7202 188.508 10.6498 188.154 10.597C187.801 10.5442 187.439 10.5179 187.069 10.5179C186.345 10.5179 185.665 10.6674 185.029 10.9665C184.394 11.2479 183.829 11.7053 183.335 12.3386C182.84 12.972 182.452 13.79 182.169 14.7927C181.887 15.7779 181.746 16.9654 181.746 18.3551C181.746 20.8708 182.249 22.8059 183.255 24.1605C184.262 25.5151 185.63 26.1924 187.36 26.1924C187.854 26.1924 188.269 26.1572 188.605 26.0869C188.958 25.9989 189.196 25.8846 189.32 25.7438L190.617 22.0495Z" fill="white"/>
<path d="M206.436 23.7647C206.436 24.1517 206.436 24.486 206.436 24.7675C206.454 25.0489 206.48 25.348 206.516 25.6647L208.343 25.9285V26.8521C208.131 26.9577 207.84 27.0632 207.469 27.1688C207.116 27.2743 206.736 27.3799 206.33 27.4854C205.942 27.5734 205.554 27.6438 205.165 27.6965C204.777 27.7669 204.433 27.8197 204.132 27.8549H203.232C203.055 27.4503 202.95 27.0456 202.914 26.641C202.879 26.2364 202.852 25.7438 202.835 25.1633H202.702C202.614 25.5151 202.464 25.8582 202.252 26.1924C202.04 26.5091 201.767 26.7993 201.431 27.0632C201.113 27.3095 200.734 27.5118 200.292 27.6702C199.851 27.8285 199.357 27.9077 198.809 27.9077C198.227 27.9077 197.688 27.8197 197.194 27.6438C196.7 27.4678 196.267 27.2216 195.896 26.9049C195.526 26.5882 195.234 26.21 195.022 25.7702C194.811 25.3128 194.705 24.8026 194.705 24.2397C194.705 23.4481 194.855 22.7971 195.155 22.287C195.455 21.7768 195.923 21.3634 196.558 21.0467C197.212 20.7125 198.041 20.4662 199.048 20.3079C200.072 20.1495 201.308 20.0352 202.755 19.9648C202.897 18.4519 202.835 17.3436 202.57 16.6399C202.305 15.9362 201.731 15.5844 200.849 15.5844C200.301 15.5844 199.798 15.6723 199.339 15.8483L198.094 19.0148H196.929C196.788 18.8037 196.647 18.5662 196.505 18.3024C196.382 18.0209 196.258 17.7306 196.135 17.4316C196.029 17.1149 195.932 16.7982 195.843 16.4816C195.773 16.1649 195.72 15.8571 195.685 15.558C196.355 15.1006 197.22 14.74 198.28 14.4761C199.339 14.2122 200.46 14.0803 201.643 14.0803C202.649 14.0803 203.47 14.1946 204.106 14.4233C204.741 14.6344 205.236 14.9335 205.589 15.3205C205.96 15.6899 206.216 16.1297 206.357 16.6399C206.498 17.1501 206.569 17.6954 206.569 18.276C206.569 19.3315 206.542 20.2903 206.489 21.1523C206.454 21.9967 206.436 22.8675 206.436 23.7647ZM200.478 25.7966C200.849 25.7966 201.166 25.7262 201.431 25.5855C201.696 25.4448 201.917 25.2776 202.093 25.0841C202.287 24.8906 202.429 24.6795 202.517 24.4508C202.623 24.2221 202.702 24.0198 202.755 23.8439V21.2051C201.926 21.2227 201.246 21.2754 200.716 21.3634C200.187 21.4513 199.772 21.6009 199.471 21.812C199.171 22.0055 198.959 22.2606 198.836 22.5772C198.73 22.8763 198.677 23.2457 198.677 23.6855C198.677 24.354 198.836 24.873 199.154 25.2424C199.471 25.6119 199.913 25.7966 200.478 25.7966Z" fill="white"/>
<path d="M216.993 32.8686H209.684V31.8395C210.284 31.558 210.867 31.3469 211.432 31.2062V16.2705L209.684 16.0594V15.0302C209.967 14.9071 210.311 14.7927 210.717 14.6872C211.141 14.5816 211.573 14.4937 212.015 14.4233C212.456 14.3353 212.88 14.265 213.286 14.2122C213.709 14.1594 214.063 14.1154 214.345 14.0803H215.245V17.0357H215.272C215.572 16.1913 216.04 15.4876 216.675 14.9247C217.329 14.3617 218.229 14.0803 219.377 14.0803C220.154 14.0803 220.851 14.2122 221.469 14.4761C222.104 14.7224 222.634 15.1182 223.058 15.6635C223.499 16.1913 223.835 16.8774 224.064 17.7218C224.311 18.5487 224.435 19.5426 224.435 20.7037C224.435 21.812 224.276 22.8147 223.958 23.7119C223.658 24.6091 223.217 25.3656 222.634 25.9813C222.069 26.597 221.372 27.072 220.542 27.4063C219.73 27.7405 218.803 27.9077 217.761 27.9077C217.161 27.9077 216.684 27.8637 216.331 27.7757C215.996 27.7053 215.634 27.5734 215.245 27.3799V31.2062C215.528 31.2414 215.81 31.3029 216.093 31.3909C216.375 31.4964 216.675 31.646 216.993 31.8395V32.8686ZM217.841 16.1913C217.24 16.1913 216.702 16.4024 216.225 16.8246C215.766 17.2468 215.44 17.8977 215.245 18.7773V25.7966C215.528 26.0077 215.828 26.166 216.146 26.2716C216.464 26.3595 216.879 26.4035 217.391 26.4035C218.397 26.4035 219.138 25.9197 219.615 24.9522C220.092 23.9846 220.33 22.5684 220.33 20.7037C220.33 19.2611 220.145 18.1528 219.774 17.3788C219.421 16.5871 218.776 16.1913 217.841 16.1913Z" fill="white"/>
<path d="M233.793 27.591H226.484V26.5619C226.749 26.4211 227.022 26.3068 227.305 26.2188C227.587 26.1133 227.896 26.0165 228.232 25.9285V16.2705L226.484 16.0594V15.0302C226.749 14.9247 227.075 14.8191 227.464 14.7136C227.87 14.608 228.294 14.5201 228.735 14.4497C229.176 14.3617 229.609 14.2914 230.033 14.2386C230.456 14.1682 230.827 14.1154 231.145 14.0803H232.045V25.9285C232.398 26.0165 232.716 26.1133 232.999 26.2188C233.281 26.3068 233.546 26.4211 233.793 26.5619V27.591ZM227.782 10.0693C227.782 9.45353 227.993 8.96975 228.417 8.61791C228.841 8.26607 229.388 8.09015 230.059 8.09015C230.73 8.09015 231.277 8.26607 231.701 8.61791C232.125 8.96975 232.336 9.45353 232.336 10.0693C232.336 10.6674 232.125 11.1424 231.701 11.4942C231.277 11.8461 230.73 12.022 230.059 12.022C229.388 12.022 228.841 11.8461 228.417 11.4942C227.993 11.1424 227.782 10.6674 227.782 10.0693Z" fill="white"/>
<path d="M235.065 15.0302C235.736 14.608 236.442 14.309 237.184 14.133V11.9956C237.29 11.89 237.466 11.7933 237.713 11.7053C237.978 11.5998 238.252 11.5118 238.534 11.4414C238.834 11.3535 239.126 11.2743 239.408 11.2039C239.691 11.1336 239.92 11.0808 240.097 11.0456H240.997V14.3969H244.493V16.0594H240.997V22.8939C240.997 23.9846 241.129 24.7411 241.394 25.1633C241.677 25.5855 242.136 25.7966 242.771 25.7966C243.089 25.7966 243.442 25.779 243.831 25.7438C244.237 25.691 244.607 25.6031 244.943 25.4799L245.128 26.3507C244.969 26.5091 244.731 26.6762 244.413 26.8521C244.113 27.028 243.76 27.1952 243.354 27.3535C242.966 27.5118 242.533 27.6438 242.056 27.7493C241.597 27.8549 241.112 27.9077 240.6 27.9077C239.452 27.9077 238.596 27.6086 238.031 27.0105C237.466 26.4123 237.184 25.4448 237.184 24.1078V16.0594H235.065V15.0302Z" fill="white"/>
<path d="M258.274 23.7647C258.274 24.1517 258.274 24.486 258.274 24.7675C258.292 25.0489 258.319 25.348 258.354 25.6647L260.181 25.9285V26.8521C259.969 26.9577 259.678 27.0632 259.307 27.1688C258.954 27.2743 258.575 27.3799 258.169 27.4854C257.78 27.5734 257.392 27.6438 257.003 27.6965C256.615 27.7669 256.271 27.8197 255.971 27.8549H255.07C254.894 27.4503 254.788 27.0456 254.752 26.641C254.717 26.2364 254.691 25.7438 254.673 25.1633H254.54C254.452 25.5151 254.302 25.8582 254.09 26.1924C253.878 26.5091 253.605 26.7993 253.269 27.0632C252.952 27.3095 252.572 27.5118 252.131 27.6702C251.689 27.8285 251.195 27.9077 250.648 27.9077C250.065 27.9077 249.526 27.8197 249.032 27.6438C248.538 27.4678 248.105 27.2216 247.735 26.9049C247.364 26.5882 247.072 26.21 246.861 25.7702C246.649 25.3128 246.543 24.8026 246.543 24.2397C246.543 23.4481 246.693 22.7971 246.993 22.287C247.293 21.7768 247.761 21.3634 248.397 21.0467C249.05 20.7125 249.88 20.4662 250.886 20.3079C251.91 20.1495 253.146 20.0352 254.593 19.9648C254.735 18.4519 254.673 17.3436 254.408 16.6399C254.143 15.9362 253.569 15.5844 252.687 15.5844C252.139 15.5844 251.636 15.6723 251.177 15.8483L249.933 19.0148H248.767C248.626 18.8037 248.485 18.5662 248.344 18.3024C248.22 18.0209 248.096 17.7306 247.973 17.4316C247.867 17.1149 247.77 16.7982 247.682 16.4816C247.611 16.1649 247.558 15.8571 247.523 15.558C248.194 15.1006 249.059 14.74 250.118 14.4761C251.177 14.2122 252.298 14.0803 253.481 14.0803C254.488 14.0803 255.308 14.1946 255.944 14.4233C256.58 14.6344 257.074 14.9335 257.427 15.3205C257.798 15.6899 258.054 16.1297 258.195 16.6399C258.336 17.1501 258.407 17.6954 258.407 18.276C258.407 19.3315 258.38 20.2903 258.327 21.1523C258.292 21.9967 258.274 22.8675 258.274 23.7647ZM252.316 25.7966C252.687 25.7966 253.004 25.7262 253.269 25.5855C253.534 25.4448 253.755 25.2776 253.931 25.0841C254.126 24.8906 254.267 24.6795 254.355 24.4508C254.461 24.2221 254.54 24.0198 254.593 23.8439V21.2051C253.764 21.2227 253.084 21.2754 252.554 21.3634C252.025 21.4513 251.61 21.6009 251.31 21.812C251.009 22.0055 250.798 22.2606 250.674 22.5772C250.568 22.8763 250.515 23.2457 250.515 23.6855C250.515 24.354 250.674 24.873 250.992 25.2424C251.31 25.6119 251.751 25.7966 252.316 25.7966Z" fill="white"/>
<path d="M269.096 27.591H261.787V26.5619C262.37 26.2804 262.952 26.0693 263.535 25.9285V9.93732L261.522 9.72621V8.69707C261.752 8.59152 262.07 8.48597 262.476 8.38042C262.882 8.27486 263.314 8.1869 263.773 8.11654C264.25 8.02857 264.718 7.95821 265.177 7.90543C265.654 7.83506 266.077 7.78228 266.448 7.7471H267.348V25.9285C267.931 26.0693 268.514 26.2804 269.096 26.5619V27.591Z" fill="white"/>
<path d="M72.2773 38.985L70.2877 38.7455V37.6033H76.0355L78.2278 45.5249L78.7436 47.6804L79.1858 45.5249L81.3596 37.6033H87.0521V38.7455L85.0441 38.985L86.5179 49.9832L88.0101 50.1858V51.2912H82.1333V50.1858L83.7545 50.0016L82.9439 41.9325L82.5939 38.5612L81.9123 41.3983L79.241 50.7201H77.2882L74.5617 41.8773L73.6222 38.5612L73.3458 41.9325L72.6458 50.0016L74.5065 50.1858V51.2912H69.385V50.1858L70.9325 50.0016L72.2773 38.985Z" fill="white"/>
<path d="M99.4431 37.5296H102.262L106.517 50.0016L107.586 50.1858V51.2912H102.151V50.1858L103.533 50.0016L102.814 47.6067H98.043L97.3245 50.02L98.8167 50.1858V51.2912H94.119L94.1006 50.1858L95.2059 50.0016L99.4431 37.5296ZM100.714 40.643L100.383 39.206L100.033 40.6614L98.393 46.3171H102.446L100.714 40.643Z" fill="white"/>
<path d="M115.897 38.985L114.442 38.7455V37.6033H118.624L124.113 45.8934L125.145 47.9935V38.985L123.561 38.7455V37.6033H128.13V38.7455L126.711 38.985V51.2912H124.482L118.753 42.5773L117.463 40.1456V50.0016L119.324 50.1858V51.2912H114.442V50.1858L115.897 50.0016V38.985Z" fill="white"/>
<path d="M139.878 37.5296H142.697L146.952 50.0016L148.021 50.1858V51.2912H142.586V50.1858L143.968 50.0016L143.25 47.6067H138.478L137.76 50.02L139.252 50.1858V51.2912H134.554L134.536 50.1858L135.641 50.0016L139.878 37.5296ZM141.149 40.643L140.818 39.206L140.468 40.6614L138.828 46.3171H142.881L141.149 40.643Z" fill="white"/>
<path d="M161.251 51.4938C159.9 51.4938 158.733 51.199 157.751 50.6095C156.78 50.0077 156.044 49.1848 155.54 48.1409C155.036 47.097 154.785 45.9179 154.785 44.6038C154.785 43.0932 155.073 41.7974 155.651 40.7167C156.24 39.6359 157.069 38.8192 158.138 38.2665C159.206 37.7138 160.453 37.4375 161.877 37.4375C163.216 37.4375 164.721 37.6278 166.391 38.0086L166.188 41.4351H164.328L163.83 39.0771C163.707 38.9543 163.474 38.8437 163.13 38.7455C162.786 38.6349 162.338 38.5797 161.785 38.5797C160.582 38.5797 159.636 39.0709 158.948 40.0535C158.26 41.0237 157.917 42.43 157.917 44.2722C157.917 46.0776 158.211 47.5391 158.801 48.6567C159.39 49.7621 160.287 50.3148 161.49 50.3148C161.982 50.3148 162.442 50.2534 162.872 50.1305C163.302 50.0077 163.627 49.8481 163.849 49.6516V45.6907L161.896 45.5065V44.2722H167.496V45.5065L166.52 45.6723V50.5543C166.262 50.5665 165.795 50.6709 165.12 50.8674C164.334 51.0762 163.658 51.2297 163.093 51.328C162.541 51.4385 161.926 51.4938 161.251 51.4938Z" fill="white"/>
<path d="M176.378 38.985L174.905 38.7455V37.6033H184.724L184.963 40.6982H183.674L183.066 38.8744L179.087 38.7086V43.6643L181.647 43.609L181.942 42.0983H183.121V46.5566H181.942L181.647 44.9723L179.087 44.917V50.1121L183.545 49.891L184.613 47.533L185.995 47.9198L185.516 51.2912H174.923V50.1858L176.378 50.0016V38.985Z" fill="white"/>
<path d="M195.58 38.985L193.59 38.7455V37.6033H199.338L201.53 45.5249L202.046 47.6804L202.488 45.5249L204.662 37.6033H210.354V38.7455L208.346 38.985L209.82 49.9832L211.312 50.1858V51.2912H205.436V50.1858L207.057 50.0016L206.246 41.9325L205.896 38.5612L205.215 41.3983L202.543 50.7201H200.591L197.864 41.8773L196.924 38.5612L196.648 41.9325L195.948 50.0016L197.809 50.1858V51.2912H192.687V50.1858L194.235 50.0016L195.58 38.985Z" fill="white"/>
<path d="M219.89 38.985L218.416 38.7455V37.6033H228.235L228.475 40.6982H227.185L226.577 38.8744L222.598 38.7086V43.6643L225.159 43.609L225.454 42.0983H226.633V46.5566H225.454L225.159 44.9723L222.598 44.917V50.1121L227.056 49.891L228.125 47.533L229.506 47.9198L229.027 51.2912H218.435V50.1858L219.89 50.0016V38.985Z" fill="white"/>
<path d="M238.336 38.985L236.88 38.7455V37.6033H241.062L246.552 45.8934L247.584 47.9935V38.985L246 38.7455V37.6033H250.568V38.7455L249.15 38.985V51.2912H246.921L241.191 42.5773L239.902 40.1456V50.0016L241.762 50.1858V51.2912H236.88V50.1858L238.336 50.0016V38.985Z" fill="white"/>
<path d="M262.483 38.8192L259.848 38.9113L259.13 42.9274H257.582L257.896 37.6033H269.778L269.999 42.9274H268.544L267.825 38.9113L265.228 38.8192V50.0016L267.807 50.1858V51.2912H260.125V50.1858L262.483 50.0016V38.8192Z" fill="white"/>
</svg>
