<svg width="29" height="29" viewBox="0 0 29 29" fill="none" xmlns="http://www.w3.org/2000/svg">
<mask id="mask0" mask-type="alpha" maskUnits="userSpaceOnUse" x="0" y="0" width="29" height="29">
<rect width="28.2178" height="28.2178" fill="#C4C4C4"/>
</mask>
<g mask="url(#mask0)">
<path d="M9.40562 10.7496H7.61401V19.7077H9.40562V10.7496Z" fill="white"/>
<path d="M9.40587 6.71843H7.61426V8.51004H9.40587V6.71843Z" fill="white"/>
<path d="M13.8849 16.3484V15.2287C13.8849 13.8626 14.9822 12.7652 16.3483 12.7652C17.7144 12.7652 18.8118 13.8626 18.8118 15.2287V19.7077H20.6034V15.2287C20.6034 12.8772 18.6998 10.9736 16.3483 10.9736C15.4301 10.9736 14.5791 11.2647 13.8849 11.7574V10.7496H12.0933V15.2287V16.3484V19.7077H13.8849V16.3484Z" fill="white"/>
<path d="M28.2178 0H0V28.2178H28.2178V0ZM26.8741 26.8741H1.34371V1.34371H26.8741V26.8741Z" fill="white"/>
</g>
</svg>
