<svg width="29" height="29" viewBox="0 0 29 29" fill="none" xmlns="http://www.w3.org/2000/svg">
<mask id="mask0" mask-type="alpha" maskUnits="userSpaceOnUse" x="0" y="0" width="29" height="29">
<rect width="28.2178" height="28.2178" fill="#C4C4C4"/>
</mask>
<g mask="url(#mask0)">
<path d="M18.9382 0H9.58872C7.44127 0 5.69287 1.7484 5.69287 3.89585V24.154C5.69287 26.3015 7.44127 28.0499 9.58872 28.0499H18.9382C21.0857 28.0499 22.8341 26.3015 22.8341 24.154V3.89585C22.8341 1.74703 21.0857 0 18.9382 0ZM21.2763 24.1526C21.2763 25.4417 20.2272 26.4907 18.9382 26.4907H9.58872C8.29971 26.4907 7.25066 25.4417 7.25066 24.1526V3.89585C7.25066 2.60683 8.29971 1.55779 9.58872 1.55779H18.9382C20.2272 1.55779 21.2763 2.60683 21.2763 3.89585V24.1526V24.1526Z" fill="white"/>
<path d="M14.2634 25.7105C15.1237 25.7105 15.8212 25.013 15.8212 24.1527C15.8212 23.2923 15.1237 22.5949 14.2634 22.5949C13.403 22.5949 12.7056 23.2923 12.7056 24.1527C12.7056 25.013 13.403 25.7105 14.2634 25.7105Z" fill="white"/>
<path d="M15.8211 2.33667H12.7042C12.2736 2.33667 11.9253 2.68498 11.9253 3.11557C11.9253 3.54615 12.2736 3.89446 12.7042 3.89446H15.8211C16.2517 3.89446 16.6 3.54615 16.6 3.11557C16.6 2.68498 16.2517 2.33667 15.8211 2.33667Z" fill="white"/>
</g>
</svg>
