<svg width="29" height="29" viewBox="0 0 29 29" fill="none" xmlns="http://www.w3.org/2000/svg">
<mask id="mask0" mask-type="alpha" maskUnits="userSpaceOnUse" x="0" y="0" width="29" height="29">
<rect x="0.604004" width="28.2178" height="28.2178" fill="#C4C4C4"/>
</mask>
<g mask="url(#mask0)">
<path d="M28.234 3.71287H1.19188C0.867226 3.71287 0.604004 3.9774 0.604004 4.30367V23.2093C0.604004 23.5356 0.867226 23.8001 1.19188 23.8001H28.234C28.5586 23.8001 28.8218 23.5356 28.8218 23.2093V4.30367C28.8218 3.9774 28.5586 3.71287 28.234 3.71287ZM27.6461 20.0313L18.4947 13.4037L26.2077 8.87892C26.7685 8.55002 27.2495 8.11882 27.6461 7.62336V20.0313ZM12.3146 12.8471L12.3144 12.847L3.8106 7.85829C2.72926 7.22429 2.00443 6.1218 1.82557 4.89447H27.6003C27.4214 6.1218 26.6966 7.22429 25.6152 7.85829L17.114 12.8453C17.1124 12.8463 17.1108 12.8472 17.1092 12.8482L15.6085 13.7285C15.339 13.8869 15.0318 13.9703 14.7164 13.9703C14.7129 13.97 14.7095 13.9697 14.7063 13.9703C14.394 13.9703 14.0869 13.8866 13.817 13.7285L12.3146 12.8471ZM3.21814 8.87892L10.9311 13.4038L1.77975 20.0314V7.62336C2.17634 8.11882 2.65736 8.55002 3.21814 8.87892ZM1.77975 22.6185V21.4879L12.0423 14.0557L13.2243 14.7491C13.6738 15.0125 14.1859 15.1519 14.7032 15.1519C14.7086 15.1522 14.7141 15.1522 14.7195 15.1519C15.2399 15.1519 15.752 15.0125 16.2013 14.7491L17.3836 14.0555L27.6461 21.4879V22.6185H1.77975Z" fill="white"/>
</g>
</svg>
