<svg width="29" height="29" viewBox="0 0 29 29" fill="none" xmlns="http://www.w3.org/2000/svg">
<mask id="mask0" mask-type="alpha" maskUnits="userSpaceOnUse" x="0" y="0" width="29" height="29">
<rect width="28.22" height="28.22" fill="#C4C4C4"/>
</mask>
<g mask="url(#mask0)">
<path d="M19.1664 20.6532C17.6859 22.1337 13.9231 20.7702 10.7631 17.6102C7.60302 14.4501 6.23953 10.6874 7.72006 9.20682L9.25327 7.67362C9.52245 7.40443 9.9555 7.40443 10.2247 7.67362L11.793 9.24193C12.0622 9.51112 12.0622 9.94416 11.793 10.2134L10.728 11.2784C9.90283 12.1035 10.6285 14.1927 12.384 15.9541C14.1396 17.7155 16.2756 18.4763 17.1007 17.6511L18.1599 16.5861C18.4291 16.3169 18.8621 16.3169 19.1313 16.5861L20.6996 18.1544C20.9688 18.4236 20.9688 18.8566 20.6996 19.1258L19.1664 20.6532Z" fill="white"/>
<path d="M5.54152 24.1234C7.73599 26.1423 10.5098 27.3829 13.4826 27.6579C16.0457 27.8979 18.6615 27.3478 20.9262 26.1423C25.3386 23.8015 28.1299 19.0146 27.9953 14.023C27.8724 9.07223 24.9055 4.4258 20.4112 2.30741C18.1466 1.23651 15.5951 0.785908 13.1022 1.09606C10.5683 1.40621 8.2217 2.39519 6.23204 3.99276C2.08303 7.3108 0.333308 13.0281 1.8314 18.1134C2.05377 18.8683 2.35222 19.6057 2.69748 20.3138C2.69748 20.0212 2.69748 19.7227 2.69748 19.4301C1.94259 20.8814 1.18769 22.3268 0.432791 23.7781C0.321604 23.9888 0.21627 24.1936 0.105083 24.4043C-0.246032 25.0831 0.333308 25.8848 1.09406 25.6917C2.63896 25.2996 4.18972 24.9075 5.73463 24.5154C5.95115 24.4628 6.17353 24.4043 6.39005 24.3516C6.85235 24.2346 7.12739 23.7196 7.0045 23.269C6.87576 22.8008 6.38419 22.5375 5.92189 22.6545C4.37699 23.0466 2.82623 23.4387 1.28132 23.8308C1.0648 23.8834 0.842425 23.942 0.625904 23.9946C0.953612 24.4218 1.28717 24.8549 1.61488 25.2821C2.29955 23.9946 2.97252 22.7014 3.6455 21.4022C3.79765 21.1155 3.94394 20.8287 4.09609 20.542C4.1312 20.4776 4.16632 20.4074 4.20143 20.343C4.22484 20.2962 4.23654 20.2728 4.25995 20.2143C4.41795 19.8222 4.24824 19.5121 4.08439 19.1609C3.40557 17.7038 3.0486 16.0009 3.0486 14.3565C3.0486 14.0171 3.0603 13.6718 3.08956 13.3324C3.10127 13.1686 3.11882 13.0106 3.13638 12.8467C3.14223 12.8058 3.14808 12.7648 3.15393 12.7238C3.15393 12.7355 3.13638 12.8643 3.14808 12.7589C3.15979 12.6653 3.17734 12.5717 3.18905 12.4839C3.30023 11.8226 3.46994 11.1672 3.68646 10.5294C3.73913 10.3831 3.79179 10.2368 3.84446 10.0905C3.87372 10.0202 3.90298 9.94417 3.93224 9.87394C3.96735 9.78031 3.92639 9.8915 3.92054 9.9032C3.93809 9.85639 3.9615 9.80957 3.98491 9.76275C4.11365 9.47016 4.25995 9.17756 4.4121 8.89082C4.7164 8.32318 5.06751 7.78481 5.45374 7.27569C5.51226 7.19376 5.44203 7.28739 5.43618 7.2991C5.45959 7.26984 5.483 7.24058 5.50641 7.21132C5.55322 7.1528 5.60004 7.09428 5.6527 7.02991C5.75804 6.90117 5.86923 6.77827 5.98041 6.64953C6.19108 6.4096 6.41345 6.18138 6.64753 5.95901C6.88746 5.73078 7.13909 5.50841 7.39658 5.29774C7.4551 5.25092 7.51361 5.20411 7.57799 5.15144C7.65406 5.08707 7.56043 5.16314 7.55458 5.169C7.58384 5.14559 7.6131 5.12218 7.64821 5.09877C7.7828 4.99929 7.9174 4.89981 8.05199 4.80618C8.58452 4.44336 9.14045 4.1215 9.71979 3.84061C9.86024 3.77624 10.0007 3.71187 10.1411 3.6475C10.2933 3.57727 10.0592 3.67676 10.2172 3.61824C10.2991 3.58313 10.3869 3.55387 10.4688 3.51875C10.7731 3.40172 11.0833 3.29638 11.3993 3.2086C11.7153 3.11497 12.0371 3.0389 12.359 2.96867C12.5287 2.93356 12.6984 2.9043 12.8681 2.87504C12.9501 2.86334 13.0261 2.85164 13.1081 2.83993C12.9442 2.86334 13.1783 2.83408 13.2368 2.82238C13.9156 2.7463 14.6003 2.72289 15.2791 2.75801C15.6185 2.77556 15.9521 2.80482 16.2915 2.84578C16.1393 2.82823 16.3208 2.85164 16.3734 2.85749C16.4554 2.86919 16.5314 2.8809 16.6075 2.89845C16.7772 2.92771 16.9469 2.96282 17.1166 2.99793C17.7545 3.13838 18.3865 3.33149 18.9951 3.57142C19.0302 3.58313 19.2175 3.6592 19.1414 3.62994C19.0653 3.60068 19.2526 3.67676 19.2877 3.69431C19.4515 3.77039 19.6154 3.84646 19.7792 3.92839C20.066 4.07469 20.3469 4.22684 20.6278 4.39069C20.9028 4.55454 21.172 4.7301 21.4353 4.91736C21.4997 4.96418 21.5582 5.00514 21.6226 5.05196C21.6519 5.07537 21.8099 5.1924 21.7455 5.14559C21.6811 5.09877 21.8391 5.22166 21.8684 5.24507C21.9386 5.30359 22.0088 5.35626 22.0732 5.41478C22.5589 5.82441 23.0212 6.27501 23.4367 6.75487C23.5362 6.87191 23.6357 6.98894 23.7351 7.10598C23.782 7.1645 23.8288 7.22302 23.8814 7.28739C23.782 7.1645 23.9224 7.34591 23.9517 7.38687C24.1448 7.64436 24.3203 7.9077 24.49 8.18274C24.6656 8.46363 24.8353 8.75623 24.9875 9.05467C25.0577 9.19512 25.1279 9.32971 25.1923 9.47016C25.2274 9.54038 25.2566 9.61061 25.2918 9.68083C25.3093 9.71594 25.321 9.75105 25.3386 9.78616C25.3444 9.80372 25.4088 9.95002 25.3678 9.86224C25.3386 9.78616 25.4146 9.97928 25.4263 10.0085C25.4556 10.0788 25.4849 10.1548 25.5083 10.2251C25.5668 10.3831 25.6253 10.5469 25.678 10.7049C25.7775 11.0151 25.8711 11.3311 25.9472 11.6529C26.0232 11.9748 26.0876 12.3025 26.1403 12.6302C26.1461 12.6829 26.1754 12.8701 26.152 12.7121C26.1637 12.7941 26.1695 12.8701 26.1812 12.9521C26.1988 13.1276 26.2164 13.3032 26.2281 13.4787C26.2749 14.1751 26.2632 14.8715 26.1988 15.5679C26.1929 15.6498 26.1812 15.7259 26.1754 15.8078C26.1695 15.8663 26.1403 16.0477 26.1637 15.8956C26.1403 16.0653 26.111 16.2408 26.0818 16.4105C26.0232 16.7382 25.9472 17.0601 25.8594 17.3761C25.7716 17.6921 25.678 18.0023 25.5668 18.3124C25.5141 18.4587 25.4556 18.605 25.4029 18.7513C25.3912 18.7864 25.3737 18.8215 25.3561 18.8625C25.362 18.8508 25.4088 18.7396 25.3678 18.8332C25.3327 18.9152 25.2976 18.9971 25.2566 19.079C24.9875 19.6642 24.6773 20.2318 24.3203 20.7644C24.2384 20.8931 24.1506 21.0219 24.057 21.1447C24.0102 21.2091 23.9692 21.2676 23.9224 21.332C23.899 21.3613 23.8756 21.3905 23.8522 21.4256C23.7703 21.531 23.9341 21.3262 23.8463 21.4315C23.6415 21.6948 23.425 21.9465 23.1968 22.1922C22.7637 22.6604 22.2956 23.0934 21.7923 23.4972C21.763 23.5206 21.7338 23.544 21.7045 23.5674C21.7162 23.5616 21.8099 23.4855 21.7279 23.5499C21.6636 23.5967 21.605 23.6435 21.5407 23.6845C21.4061 23.784 21.2715 23.8776 21.131 23.9712C20.8618 24.1526 20.5927 24.3165 20.3118 24.4745C20.0309 24.6325 19.7441 24.7788 19.4515 24.9134C19.3813 24.9485 19.3111 24.9777 19.2409 25.007C19.1941 25.0304 19.0243 25.0948 19.1648 25.0421C19.0068 25.1065 18.8488 25.165 18.6908 25.2235C18.0588 25.4518 17.4092 25.6332 16.7538 25.7561C16.5958 25.7853 16.4378 25.8087 16.2798 25.838C16.1101 25.8672 16.3676 25.8321 16.192 25.8497C16.0984 25.8614 16.0048 25.8731 15.9111 25.8789C15.5717 25.9141 15.2323 25.9316 14.8929 25.9375C14.5008 25.9433 14.1087 25.9375 13.7225 25.9082C13.5294 25.8965 13.3363 25.8731 13.149 25.8555C13.0437 25.8438 13.1256 25.8555 13.1432 25.8555C13.0963 25.8497 13.0495 25.8438 13.0027 25.8321C12.8915 25.8146 12.7862 25.797 12.675 25.7795C11.0891 25.4986 9.79001 24.9953 8.44992 24.1526C8.13977 23.9595 7.84132 23.7488 7.54873 23.5265C7.4668 23.468 7.53117 23.5089 7.54873 23.5265C7.51361 23.4972 7.4785 23.468 7.44339 23.4387C7.37317 23.3802 7.30295 23.3217 7.23272 23.2631C7.08057 23.1344 6.93427 23.0057 6.78798 22.8711C6.43686 22.5492 5.89263 22.5258 5.54737 22.8711C5.21966 23.2105 5.1904 23.8015 5.54152 24.1234Z" fill="white"/>
</g>
</svg>
